<?xml version="1.0" standalone="no"?>
<!DOCTYPE svg PUBLIC "-//W3C//DTD SVG 20010904//EN"
 "http://www.w3.org/TR/2001/REC-SVG-20010904/DTD/svg10.dtd">
<svg version="1.0" xmlns="http://www.w3.org/2000/svg"
 width="512.000000pt" height="512.000000pt" viewBox="0 0 512.000000 512.000000"
 preserveAspectRatio="xMidYMid meet">

<g transform="translate(0.000000,512.000000) scale(0.100000,-0.100000)"
fill="#000000" stroke="none">
<path d="M0 2560 l0 -2560 2560 0 2560 0 0 2560 0 2560 -2560 0 -2560 0 0
-2560z m4358 1471 c163 -84 161 -306 -3 -382 -38 -18 -108 -19 -1798 -19
-1710 0 -1759 1 -1795 19 -163 84 -161 298 3 384 27 15 207 16 1793 17 1715 0
1764 -1 1800 -19z m0 -1280 c163 -84 161 -306 -3 -382 -38 -18 -91 -19 -1158
-19 -1081 0 -1119 1 -1155 19 -163 84 -161 298 3 384 27 15 150 16 1153 17
1086 0 1124 -1 1160 -19z m0 -1280 c163 -84 161 -306 -3 -382 -38 -18 -108
-19 -1798 -19 -1710 0 -1759 1 -1795 19 -163 84 -161 298 3 384 27 15 207 16
1793 17 1715 0 1764 -1 1800 -19z"/>
</g>
</svg>
